<svg xmlns="http://www.w3.org/2000/svg" xmlns:xlink="http://www.w3.org/1999/xlink" width="500" zoomAndPan="magnify" viewBox="0 0 375 149.999998" height="200" preserveAspectRatio="xMidYMid meet" version="1.0"><defs><clipPath id="7aea9dcd8d"><path d="M 0.195312 12.65625 L 374.808594 12.65625 L 374.808594 137.15625 L 0.195312 137.15625 Z M 0.195312 12.65625 " clip-rule="nonzero"/></clipPath></defs><path fill="#b24706" d="M 71.789062 23.007812 C 72.179688 23.007812 72.570312 23.007812 72.960938 23.007812 C 73.023438 23.859375 71.730469 23.859375 71.789062 23.007812 " fill-opacity="1" fill-rule="evenodd"/><path fill="#b24706" d="M 110.566406 24.511719 C 109.949219 24.402344 109.691406 23.941406 109.5625 23.34375 C 110.042969 23.027344 110.503906 23.882812 110.566406 24.511719 " fill-opacity="1" fill-rule="evenodd"/><path fill="#b24706" d="M 134.632812 23.34375 C 135.304688 24.488281 135.28125 26.117188 135.136719 27.515625 C 134.898438 29.738281 134.027344 32.261719 133.128906 33.523438 C 133.652344 30.152344 134.800781 27.402344 134.632812 23.34375 " fill-opacity="1" fill-rule="evenodd"/><path fill="#b24706" d="M 65.105469 24.175781 C 65.597656 24.417969 64.882812 24.828125 65.105469 25.34375 C 64.480469 25.214844 64.996094 24.539062 65.105469 24.175781 " fill-opacity="1" fill-rule="evenodd"/><path fill="#b24706" d="M 69.117188 24.84375 C 69.503906 24.792969 69.757812 24.871094 69.953125 25.011719 C 69.9375 25.507812 68.953125 25.457031 69.117188 24.84375 " fill-opacity="1" fill-rule="evenodd"/><path fill="#b24706" d="M 108.558594 24.84375 C 109.203125 25.257812 109.1875 26.332031 109.730469 26.847656 C 109.234375 27.589844 108.078125 25.617188 108.558594 24.84375 " fill-opacity="1" fill-rule="evenodd"/><path fill="#b24706" d="M 131.125 27.515625 C 132.292969 28.570312 132.898438 32.597656 131.625 34.023438 C 131.453125 31.996094 131.585938 29.621094 131.125 27.515625 " fill-opacity="1" fill-rule="evenodd"/><path fill="#b24706" d="M 141.152344 31.355469 C 141.882812 31.289062 142.011719 31.832031 142.65625 31.855469 C 142.378906 32.550781 140.996094 32.125 141.152344 31.355469 " fill-opacity="1" fill-rule="evenodd"/><path fill="#b24706" d="M 47.386719 31.855469 C 48.148438 31.832031 47.976562 33.398438 47.890625 33.691406 C 47.039062 33.804688 47.09375 32.355469 47.386719 31.855469 " fill-opacity="1" fill-rule="evenodd"/><path fill="#b24706" d="M 139.3125 32.355469 C 139.519531 32.902344 138.355469 33.742188 137.640625 34.355469 C 136.855469 35.035156 136.003906 35.769531 135.300781 36.191406 C 136.222656 34.496094 137.828125 33.484375 139.3125 32.355469 " fill-opacity="1" fill-rule="evenodd"/><path fill="#b24706" d="M 171.90625 32.6875 C 172.527344 32.621094 172.886719 32.820312 172.90625 33.355469 C 172.285156 33.421875 171.925781 33.222656 171.90625 32.6875 " fill-opacity="1" fill-rule="evenodd"/><path fill="#b24706" d="M 171.570312 34.023438 C 171.90625 34.242188 172.136719 34.570312 172.238281 35.023438 C 171.695312 35.007812 171.292969 34.351562 171.570312 34.023438 " fill-opacity="1" fill-rule="evenodd"/><path fill="#b24706" d="M 177.753906 34.355469 C 177.898438 34.328125 177.914062 34.421875 177.921875 34.523438 C 177.972656 34.75 178.339844 34.664062 178.589844 34.691406 C 178.640625 35.128906 178.359375 35.238281 177.921875 35.191406 C 177.78125 34.996094 177.703125 34.746094 177.753906 34.355469 " fill-opacity="1" fill-rule="evenodd"/><path fill="#b24706" d="M 141.820312 39.363281 C 141.21875 39.640625 140.628906 39.179688 140.484375 38.53125 C 140.816406 38.359375 141.710938 38.785156 141.820312 39.363281 " fill-opacity="1" fill-rule="evenodd"/><path fill="#b24706" d="M 181.429688 39.699219 C 181.929688 39.84375 182.125 40.777344 181.597656 41.035156 C 180.96875 41.144531 181.285156 39.863281 181.429688 39.699219 " fill-opacity="1" fill-rule="evenodd"/><path fill="#b24706" d="M 178.757812 40.363281 C 179.273438 40.351562 179.253906 40.871094 179.257812 41.367188 C 178.90625 41.199219 178.449219 40.691406 178.757812 40.363281 " fill-opacity="1" fill-rule="evenodd"/><path fill="#b24706" d="M 74.464844 60.226562 C 72.664062 57.683594 71.628906 54.378906 68.445312 53.214844 C 68.445312 53.046875 68.445312 52.882812 68.445312 52.714844 C 71.515625 53.492188 73.878906 56.410156 74.464844 60.226562 " fill-opacity="1" fill-rule="evenodd"/><path fill="#b24706" d="M 208.507812 57.722656 C 208.566406 58.429688 207.785156 57.867188 207.503906 57.886719 C 207.429688 57.511719 208.414062 57.375 208.507812 57.722656 " fill-opacity="1" fill-rule="evenodd"/><path fill="#b24706" d="M 215.363281 58.390625 C 214.945312 58.40625 214.84375 58.703125 214.527344 58.390625 C 214.585938 57.941406 215.414062 57.605469 215.363281 58.390625 " fill-opacity="1" fill-rule="evenodd"/><path fill="#b24706" d="M 214.527344 59.890625 C 214.496094 60.359375 214.234375 60.601562 213.691406 60.558594 C 213.601562 60.425781 213.515625 60.285156 213.523438 60.058594 C 213.71875 59.867188 214.113281 59.867188 214.527344 59.890625 " fill-opacity="1" fill-rule="evenodd"/><path fill="#b24706" d="M 99.535156 60.726562 C 101.035156 61.332031 100.59375 64.726562 100.203125 66.230469 C 99.742188 64.636719 99.925781 62.390625 99.535156 60.726562 " fill-opacity="1" fill-rule="evenodd"/><path fill="#b24706" d="M 132.292969 77.914062 C 132.402344 78.800781 130.976562 78.160156 131.289062 79.25 C 130.890625 79.039062 130.609375 78.707031 130.621094 78.082031 C 131.125 77.636719 131.53125 77.851562 132.292969 77.914062 " fill-opacity="1" fill-rule="evenodd"/><path fill="#b24706" d="M 130.957031 82.253906 C 131.085938 81.921875 132.035156 82.164062 131.960938 82.585938 C 131.335938 82.765625 131.484375 82.171875 130.957031 82.253906 " fill-opacity="1" fill-rule="evenodd"/><path fill="#b24706" d="M 169.566406 94.9375 C 170.1875 94.871094 170.546875 95.070312 170.566406 95.605469 C 170.023438 95.589844 169.667969 95.390625 169.566406 94.9375 " fill-opacity="1" fill-rule="evenodd"/><path fill="#b24706" d="M 298.429688 96.605469 C 299.453125 97.03125 298.46875 98.855469 297.761719 99.109375 C 297.34375 98.246094 298.316406 97.484375 298.429688 96.605469 " fill-opacity="1" fill-rule="evenodd"/><path fill="#b24706" d="M 169.566406 97.441406 C 169.214844 97.988281 168.859375 97.160156 168.5625 97.105469 C 168.828125 96.347656 169.160156 97.355469 169.566406 97.441406 " fill-opacity="1" fill-rule="evenodd"/><path fill="#b24706" d="M 175.414062 99.609375 C 175.449219 100.257812 173.917969 99.988281 174.078125 99.441406 C 174.386719 99.152344 175.273438 99.226562 175.414062 99.609375 " fill-opacity="1" fill-rule="evenodd"/><path fill="#b24706" d="M 341.714844 104.28125 C 342.234375 105.414062 341.210938 106.445312 340.882812 107.285156 C 339.792969 106.601562 341.410156 105.148438 341.714844 104.28125 " fill-opacity="1" fill-rule="evenodd"/><path fill="#b24706" d="M 212.851562 105.117188 C 212.929688 105.640625 212.707031 105.859375 212.183594 105.785156 C 212.070312 105.222656 212.464844 105.175781 212.851562 105.117188 " fill-opacity="1" fill-rule="evenodd"/><path fill="#b24706" d="M 261.488281 115.296875 C 262.425781 116.199219 262.84375 117.617188 263.160156 119.136719 C 262.136719 118.414062 261.296875 116.679688 261.488281 115.296875 " fill-opacity="1" fill-rule="evenodd"/><path fill="#b24706" d="M 321.660156 128.980469 C 322.933594 129.210938 323.757812 129.890625 324.335938 130.816406 C 323.121094 130.523438 322.210938 129.933594 321.660156 128.980469 " fill-opacity="1" fill-rule="evenodd"/><g clip-path="url(#7aea9dcd8d)"><path fill="#b24706" d="M 320.992188 126.644531 C 320.761719 126.59375 320.667969 126.40625 320.320312 126.476562 C 320.242188 129.027344 319.921875 132.578125 321.828125 133.988281 C 322.347656 133.285156 322.140625 131.855469 322.996094 131.484375 C 325.222656 131.988281 326.515625 133.417969 328.847656 133.820312 C 328.105469 131.78125 327.085938 130.015625 326.839844 127.480469 C 323.859375 127.726562 322.511719 126.351562 320.65625 125.476562 C 320.542969 126.085938 321.019531 126.117188 320.992188 126.644531 Z M 337.539062 113.792969 C 338.289062 114.097656 340.09375 114.015625 340.378906 113.292969 C 339.695312 113.0625 337.824219 113.074219 337.539062 113.792969 Z M 260.652344 113.460938 C 259.710938 115.710938 256.359375 117.191406 257.980469 121.640625 C 259.046875 121.148438 259.480469 120.023438 260.820312 119.800781 C 262.621094 120.617188 263.214844 122.640625 265 123.472656 C 265 122.582031 265 121.695312 265 120.804688 C 265.484375 119.660156 267.003906 119.769531 267.171875 118.632812 C 267.539062 116.152344 261.636719 115.09375 260.988281 112.960938 C 260.875 112.960938 260.765625 112.960938 260.652344 112.960938 C 260.605469 113.105469 260.714844 113.320312 260.652344 113.460938 Z M 341.210938 99.441406 C 341.949219 103.628906 338.605469 103.734375 338.707031 107.285156 C 339.285156 107.15625 339.441406 107.441406 339.542969 107.789062 C 338.207031 109.90625 336.96875 112.113281 335.53125 114.128906 C 336.003906 114.640625 336.683594 113.957031 337.371094 114.128906 C 337.503906 113.550781 337.121094 113.488281 337.203125 112.960938 C 338.894531 112.035156 338.894531 109.421875 340.378906 108.289062 C 340.613281 109.886719 344.0625 109.472656 344.054688 107.953125 C 343.300781 108.039062 342.851562 107.820312 342.71875 107.285156 C 343.890625 105.105469 344.820312 101.324219 343.886719 98.109375 C 342.480469 98.074219 342.710938 100.558594 341.210938 99.441406 Z M 255.136719 96.9375 C 255.566406 98.015625 255.828125 99.253906 256.808594 99.777344 C 257.351562 99.214844 255.984375 98.171875 256.808594 97.773438 C 274.449219 104.472656 291.472656 111.78125 313.46875 114.128906 C 314.128906 114.082031 313.980469 114.84375 314.636719 114.796875 C 320.429688 114.296875 329.78125 115.644531 335.363281 113.960938 C 320.929688 113.929688 305.84375 112.371094 293.410156 109.289062 C 294.210938 107.457031 296.484375 105.074219 296.085938 103.28125 C 294.5625 105.152344 293.566406 107.550781 291.742188 109.121094 C 278.058594 104.867188 265.054688 99.945312 251.960938 95.105469 C 252.335938 96.398438 254.082031 96.324219 255.136719 96.9375 Z M 210.847656 96.773438 C 209.96875 99.175781 207.859375 100.355469 205.332031 101.109375 C 205.808594 103.527344 209.484375 103.722656 211.179688 102.28125 C 212.152344 101.53125 211.890625 99.484375 212.851562 98.941406 C 212.601562 99.082031 213.953125 99.351562 213.855469 98.941406 C 215.792969 100.625 215.964844 107.082031 213.6875 107.953125 C 214.753906 105.863281 215.011719 101.09375 213.355469 99.441406 C 213.125 102.246094 209.558594 103.347656 209.507812 106.285156 C 209.460938 109.332031 212.398438 111.523438 215.359375 112.460938 C 214.925781 110.191406 214.488281 106.511719 217.03125 106.285156 C 217.160156 107.082031 216.4375 107.023438 216.527344 107.789062 C 217.371094 109.492188 220.390625 109.035156 220.875 107.285156 C 219.976562 106.164062 218.320312 105.527344 217.867188 103.78125 C 217.429688 102.105469 217.925781 100.179688 216.527344 99.109375 C 216.617188 98.640625 217.316406 98.785156 217.367188 98.273438 C 215.109375 97.023438 212.449219 96.175781 210.679688 94.4375 C 210.570312 94.4375 210.457031 94.4375 210.347656 94.4375 C 210.371094 95.355469 210.859375 95.816406 210.847656 96.773438 Z M 210.347656 93.269531 C 210.222656 92.109375 209.957031 91.097656 208.839844 90.933594 C 209.214844 91.835938 209.125 93.207031 210.347656 93.269531 Z M 296.757812 95.605469 C 295.929688 95.484375 295.96875 94.5 295.417969 94.101562 C 294.632812 93.882812 293.585938 93.929688 292.578125 93.9375 C 292.269531 97.300781 293.5625 99.074219 295.585938 100.109375 C 295.703125 99.039062 294.773438 97.832031 295.585938 97.105469 C 296.125 99.089844 296.644531 101.117188 296.085938 102.945312 C 296.972656 102.976562 297.171875 101.683594 297.589844 101.277344 C 298.90625 100.007812 300.507812 99.546875 300.765625 97.441406 C 301.109375 94.640625 299.777344 91.722656 297.757812 89.765625 C 297.648438 89.765625 297.535156 89.765625 297.421875 89.765625 C 297.664062 91.550781 297.796875 94.554688 296.757812 95.605469 Z M 237.757812 89.929688 C 239.199219 90.613281 240.996094 89.152344 241.429688 87.761719 C 239.941406 88.214844 239.1875 89.410156 237.757812 89.929688 Z M 125.605469 75.910156 C 126.707031 75.828125 128.503906 75.179688 129.117188 76.078125 C 127.960938 79.285156 129.4375 84.164062 131.625 86.09375 C 136.25 84.035156 132.054688 77.214844 132.792969 73.410156 C 133.914062 75.40625 134.21875 78.214844 134.632812 80.917969 C 135.6875 81.757812 136.925781 82.414062 138.308594 82.921875 C 139.605469 80.671875 139.707031 77.171875 138.308594 75.410156 C 137.144531 73.945312 134.734375 73.4375 133.464844 71.574219 C 132.261719 69.808594 132.039062 68.433594 131.125 66.398438 C 130.957031 66.398438 130.789062 66.398438 130.621094 66.398438 C 132.113281 72.207031 127.261719 72.730469 125.605469 75.910156 Z M 245.277344 68.402344 C 245.285156 69.710938 244.054688 70.859375 244.441406 72.242188 C 244.550781 72.621094 245.5 73.484375 245.613281 73.574219 C 248.019531 75.597656 250.269531 72.59375 249.457031 69.238281 C 248.660156 69.109375 248.378906 69.496094 247.617188 69.402344 C 247.894531 70.796875 247.769531 72.625 246.949219 73.410156 C 246.582031 70.476562 248.367188 67.476562 246.78125 64.898438 C 245.289062 65.109375 244.695312 64.421875 243.273438 64.5625 C 243.402344 65.816406 245.265625 66.410156 245.277344 68.402344 Z M 67.945312 23.175781 C 69.710938 21.101562 72.53125 20.078125 73.960938 17.667969 C 67.382812 18.273438 61.980469 20.054688 62.597656 27.847656 C 63.625 27.980469 63.914062 26.5 64.601562 26.847656 C 61.183594 31.113281 57.589844 35.199219 53.570312 38.863281 C 53.058594 37.648438 53.246094 35.742188 52.902344 34.359375 C 56.613281 30.136719 49.664062 23.117188 45.214844 27.015625 C 46.816406 28.601562 52.558594 28.488281 50.898438 31.6875 C 50.113281 28.578125 45.597656 29.191406 43.710938 27.183594 C 42.691406 27.765625 40.765625 27.800781 39.363281 27.515625 C 41.015625 32.039062 44.046875 35.191406 49.5625 35.859375 C 50.460938 36.089844 50.261719 35.222656 51.066406 35.359375 C 51.648438 36.28125 52.210938 37.21875 52.234375 38.695312 C 50.921875 39.6875 49.070312 40.273438 47.554688 40.699219 C 39.597656 42.929688 31.585938 43.601562 24.324219 46.207031 C 17.074219 48.808594 11.265625 52.699219 4.601562 55.386719 C 3.820312 55.054688 3.054688 54.703125 1.757812 54.882812 C 1.308594 55.351562 1.332031 56.710938 1.59375 57.386719 C 2.453125 57.585938 3.152344 57.945312 3.765625 58.390625 C 7.738281 57.425781 11.1875 55.277344 14.964844 53.550781 C 18.601562 51.886719 22.621094 50.792969 26.828125 49.210938 C 32.542969 47.0625 38.40625 44.726562 45.214844 43.371094 C 49.496094 42.515625 52.328125 41.8125 55.578125 43.203125 C 56.78125 43.71875 58.777344 45.5 60.757812 47.039062 C 62.601562 48.476562 64.527344 49.726562 65.605469 51.210938 C 67.101562 53.277344 65.558594 55.988281 66.941406 58.390625 C 69.820312 58.691406 72.476562 58.960938 73.960938 61.058594 C 74.585938 61.9375 74.519531 62.953125 75.46875 63.730469 C 78.117188 60.375 76.769531 54.792969 74.128906 52.714844 C 70.816406 50.105469 65.460938 51.449219 63.601562 47.375 C 61.652344 45.761719 59.492188 44.359375 58.085938 42.203125 C 65.582031 42.394531 72.953125 42.691406 79.980469 43.535156 C 82.226562 43.804688 84.476562 44.125 86.664062 44.371094 C 90.390625 44.789062 94.042969 44.332031 96.859375 46.207031 C 97.683594 49.554688 98.574219 52.839844 99.03125 56.554688 C 97.847656 58.472656 94.851562 59.460938 95.1875 62.058594 C 95.351562 63.3125 97.363281 64.113281 97.695312 65.566406 C 98.167969 67.644531 97.007812 68.484375 96.527344 70.570312 C 99.628906 70.296875 101.910156 68.761719 103.378906 67.066406 C 105.761719 64.316406 104.257812 59.832031 102.542969 57.386719 C 101.90625 56.480469 100.742188 55.902344 100.203125 54.882812 C 99.578125 53.703125 99.394531 51.890625 99.03125 50.378906 C 98.636719 48.714844 98.160156 47.121094 98.03125 45.871094 C 107.804688 46.738281 116.484375 50.140625 125.441406 52.382812 C 125.421875 53.121094 125.910156 53.359375 125.773438 54.21875 C 127.554688 56.59375 128.667969 59.820312 129.617188 62.894531 C 129.917969 63.859375 130.003906 65.15625 130.789062 65.898438 C 130.773438 61.238281 127.960938 57.039062 127.445312 52.882812 C 138.070312 55.511719 148.84375 57.996094 158.699219 61.394531 C 159.332031 61.519531 159.5 61.1875 160.039062 61.226562 C 166.921875 67.980469 169.417969 80.007812 171.234375 91.265625 C 171.011719 90.542969 171.003906 89.605469 170.234375 89.429688 C 169.480469 91.457031 167.824219 92.585938 165.050781 92.601562 C 164.027344 94.101562 164.953125 95.980469 165.554688 97.273438 C 167.355469 98.742188 171.613281 100.289062 172.40625 97.105469 C 172.675781 96.023438 171.78125 94.480469 172.90625 93.433594 C 175.070312 97.046875 171.492188 101.535156 167.390625 99.441406 C 166.296875 100.574219 165.808594 102.3125 164.71875 103.449219 C 166.023438 104.644531 168.648438 105.210938 170.234375 104.117188 C 171.382812 103.320312 170.992188 101.820312 172.238281 101.445312 C 172.792969 102.203125 171.882812 102.691406 172.070312 103.613281 C 173.402344 104.230469 174.367188 105.21875 176.25 105.285156 C 176.101562 103.378906 176.042969 100.242188 177.753906 99.277344 C 178.273438 99.832031 177.800781 100.144531 177.753906 100.945312 C 178.679688 101.355469 179.121094 102.25 180.59375 102.113281 C 181.363281 95.933594 174.773438 95.445312 172.738281 91.933594 C 171.613281 89.984375 171.457031 86.714844 170.902344 84.089844 C 169.140625 75.746094 166.519531 68.472656 163.214844 62.5625 C 175.546875 66.488281 187.535156 70.761719 199.480469 75.078125 C 200.792969 76.828125 201.601562 79.078125 203.324219 80.417969 C 203.414062 78.933594 201.171875 77.449219 201.488281 75.746094 C 213.761719 80.179688 225.296875 85.351562 237.589844 89.765625 C 237.363281 88.585938 235.894531 88.59375 235.082031 88.261719 C 221.003906 82.488281 207.394531 75.386719 192.964844 70.070312 C 197.347656 66.9375 201.867188 63.941406 207.171875 61.726562 C 206.808594 62.085938 207.085938 62.660156 207.335938 62.894531 C 210.433594 65.277344 216.570312 64.25 219.707031 62.5625 C 218.457031 60.75 219.132812 57.011719 217.699219 55.386719 C 219.96875 54.097656 220.136719 48.734375 218.203125 46.875 C 216.992188 48.613281 215.65625 50.230469 213.855469 51.378906 C 214.292969 51.941406 214.332031 52.90625 215.027344 53.214844 C 216.355469 52.910156 217.054688 51.148438 218.203125 51.210938 C 217.816406 52.609375 216.367188 52.941406 215.859375 54.21875 C 216.035156 54.503906 216.839844 54.425781 216.363281 54.882812 C 212.957031 54.046875 211.773438 58.160156 210.511719 60.558594 C 209.773438 58.789062 210.636719 56.988281 211.683594 55.550781 C 212.308594 54.695312 213.613281 54.289062 213.6875 53.382812 C 213.863281 51.28125 210.410156 49.835938 208.171875 49.210938 C 206.621094 52.175781 204.542969 55.988281 205.832031 60.726562 C 200.914062 63.65625 196.007812 66.601562 190.789062 69.238281 C 178.757812 64.777344 165.652344 59.636719 153.183594 56.71875 C 158.402344 49.914062 166.4375 45.921875 173.242188 40.699219 C 173.609375 40.890625 173.925781 41.128906 174.578125 41.035156 C 175.574219 40.914062 175.367188 39.597656 176.417969 39.53125 C 177.054688 40.386719 175.773438 40.878906 176.25 41.535156 C 178.125 44.011719 183.523438 44.523438 187.449219 43.871094 C 186.527344 41.882812 187.625 39.605469 186.949219 38.027344 C 186.003906 35.839844 183.199219 36.933594 181.265625 37.195312 C 181.207031 35.332031 183.6875 35.6875 184.941406 35.023438 C 187.453125 33.695312 189.734375 30.214844 187.617188 26.847656 C 186.214844 27.566406 185.175781 28.8125 183.4375 29.183594 C 181.996094 29.492188 180.648438 29.253906 179.425781 29.683594 C 177.121094 30.5 175.597656 32.796875 174.578125 35.023438 C 173.132812 32.488281 176.507812 31.398438 176.582031 29.851562 C 176.707031 27.351562 172.324219 26.53125 169.5625 27.183594 C 169.28125 31.609375 168.757812 37.046875 172.738281 37.695312 C 172.914062 38.078125 172.847656 38.703125 173.074219 39.03125 C 165.40625 44.277344 157.652344 49.441406 151.515625 56.21875 C 142.058594 53.589844 132.585938 50.976562 122.933594 48.542969 C 122.070312 48.515625 122.160156 49.441406 121.261719 49.378906 C 123.097656 46.316406 126.621094 44.9375 128.28125 41.699219 C 130.292969 40.96875 130.542969 38.507812 132.792969 38.363281 C 135.664062 38.179688 138.289062 42.128906 141.988281 42.367188 C 143.34375 42.457031 144.378906 42 146.164062 41.867188 C 147.726562 40.535156 144.050781 36.246094 142.824219 36.027344 C 140.730469 35.652344 139.949219 38.167969 138.144531 37.527344 C 139.921875 34.074219 146.59375 35.507812 147.667969 31.355469 C 144.914062 30.042969 144.929688 25.96875 139.980469 26.847656 C 139 28.285156 138.300781 30.8125 136.472656 30.851562 C 137.195312 28.953125 139.1875 27.324219 139.480469 24.84375 C 139.921875 21.082031 137.863281 18.683594 136.136719 17 C 134.390625 18.539062 133.191406 20.625 132.292969 23.011719 C 132.800781 24.339844 133.316406 26.550781 132.960938 28.183594 C 132.277344 25.527344 131.804688 22.660156 129.117188 22.007812 C 129.019531 24.886719 127.964844 26.425781 127.949219 28.851562 C 127.925781 31.613281 130.035156 33.292969 130.289062 35.527344 C 130.683594 39.042969 127.113281 41.695312 125.105469 43.535156 C 122.855469 45.601562 120.917969 47.800781 118.921875 48.875 C 118.535156 48.53125 119.488281 47.898438 118.921875 47.375 C 111.890625 45.996094 104.398438 45.078125 98.53125 42.535156 C 101.816406 39.136719 104.832031 35.476562 108.894531 32.855469 C 115.851562 34.179688 117.289062 27.113281 118.085938 21.171875 C 115.9375 20.6875 113.921875 20.6875 113.574219 22.507812 C 113.433594 23.25 114.117188 24.285156 114.242188 25.34375 C 114.480469 27.382812 114.394531 29.359375 112.738281 30.019531 C 113.789062 24.421875 112.261719 16.929688 104.882812 17.667969 C 105.558594 19.660156 106.550781 21.335938 106.21875 24.011719 C 106.039062 25.460938 105.21875 26.773438 105.382812 28.015625 C 105.492188 28.832031 107.042969 31.617188 107.722656 31.1875 C 104.089844 34.675781 100.882812 38.59375 97.195312 42.035156 C 96.039062 41.769531 95.765625 42.386719 95.023438 42.535156 C 82.914062 40.253906 67.492188 39.828125 54.910156 39.53125 C 58.078125 35.464844 61.417969 31.566406 65.773438 28.683594 C 65.929688 27.785156 66.320312 27.117188 67.109375 26.847656 C 67.480469 27.199219 67.527344 27.878906 68.28125 27.847656 C 74.902344 26.617188 79.753906 23.617188 79.144531 15.164062 C 75.078125 17.503906 72.503906 21.328125 67.945312 23.175781 Z M 80.148438 12.828125 C 80.382812 15.304688 80.707031 18.296875 79.980469 20.839844 C 78.816406 24.894531 72.898438 29.246094 68.445312 29.183594 C 67.90625 29.175781 67.152344 28.761719 66.609375 28.851562 C 65.195312 29.078125 62.292969 32.519531 61.261719 33.523438 C 59.382812 35.347656 57.667969 36.648438 56.414062 38.695312 C 69.738281 39.023438 83.347656 39.058594 94.351562 41.699219 C 95.261719 41.550781 95.515625 40.746094 96.859375 41.035156 C 100.175781 38.109375 102.535156 34.238281 106.21875 31.6875 C 106.140625 30.28125 104.65625 29.699219 104.382812 28.351562 C 103.964844 26.296875 105.519531 24.0625 105.21875 21.675781 C 104.949219 19.554688 103.683594 18.933594 103.546875 16.835938 C 107.726562 15.757812 111.546875 17.828125 112.738281 20.839844 C 114.304688 19.308594 117.28125 19.390625 119.757812 20.171875 C 117.976562 26.050781 117.753906 33.578125 110.898438 34.191406 C 110.242188 34.25 109.292969 33.882812 108.558594 34.023438 C 106.996094 34.328125 105.117188 36.839844 103.878906 38.027344 C 102.242188 39.605469 100.457031 40.726562 99.703125 42.535156 C 104.34375 43.980469 109.308594 44.890625 114.910156 45.871094 C 116.742188 46.195312 118.804688 47.058594 120.09375 46.875 C 121.832031 46.625 123.964844 43.320312 125.105469 42.035156 C 125.742188 41.320312 126.585938 40.519531 127.445312 39.53125 C 128.53125 38.285156 129.878906 37.476562 129.453125 35.691406 C 129.042969 33.988281 127.253906 32.636719 126.945312 30.6875 C 126.351562 26.949219 127.964844 24.328125 128.449219 20.671875 C 130.164062 20.460938 130.359375 21.769531 131.625 22.007812 C 132.6875 19.34375 134.566406 17.492188 135.800781 15 C 137.105469 16.113281 138.710938 18.101562 139.648438 19.839844 C 140.320312 21.082031 140.539062 22.96875 140.484375 25.34375 C 144.328125 25.289062 145.914062 27.488281 147.335938 29.851562 C 148.105469 30.277344 149.035156 29.65625 149.507812 30.183594 C 148.890625 33.019531 146.792969 34.375 144.660156 35.691406 C 145.835938 37.910156 149.476562 40.214844 146.667969 43.035156 C 144.875 43.109375 143.671875 43.738281 142.320312 43.703125 C 138.347656 43.605469 134.941406 38.621094 131.792969 39.863281 C 130.429688 40.402344 128.855469 42.253906 127.445312 43.535156 C 125.945312 44.898438 124.617188 46.441406 123.601562 47.707031 C 132.605469 50.398438 141.9375 52.765625 151.179688 55.21875 C 157.496094 49.0625 164.40625 43.5 172.238281 38.863281 C 170.746094 37.8125 168.992188 37.152344 168.394531 35.023438 C 167.652344 32.375 168.753906 29.085938 168.226562 26.679688 C 171.445312 24.617188 176.882812 26.261719 177.753906 29.183594 C 179.652344 27.882812 183.414062 28.636719 185.441406 27.015625 C 186.210938 26.402344 186.246094 25.691406 187.28125 25.011719 C 191.386719 27.644531 189.414062 33.441406 186.277344 35.691406 C 186.6875 36.65625 187.941406 36.691406 188.285156 38.027344 C 188.550781 39.058594 188.175781 40.445312 188.285156 41.535156 C 188.445312 43.136719 189.117188 43.667969 189.285156 44.703125 C 185.046875 45.777344 177.347656 45.425781 175.414062 41.699219 C 172.597656 41.21875 170.835938 43.710938 168.5625 45.039062 C 163.472656 48.003906 158.699219 52.113281 154.855469 55.886719 C 164.628906 59.0625 176.136719 63.035156 186.445312 66.734375 C 187.953125 67.273438 189.835938 68.296875 190.957031 68.234375 C 192.066406 68.171875 193.257812 66.988281 194.46875 66.230469 C 197.867188 64.109375 201.769531 62.621094 204.832031 60.390625 C 203.238281 55.289062 206.160156 51.28125 207.839844 47.875 C 209.890625 48.554688 211.667969 49.503906 213.1875 50.710938 C 215.714844 49.621094 217.199219 47.488281 217.699219 44.371094 C 219.851562 45.789062 222.128906 53.402344 219.035156 55.21875 C 220.203125 57.167969 219.496094 60.992188 221.210938 62.394531 C 218.167969 65.523438 209.273438 66.648438 206.167969 62.894531 C 202.277344 65.074219 198.214844 67.082031 194.800781 69.738281 C 206.605469 74.785156 220.332031 81.003906 232.910156 86.425781 C 234.550781 87.132812 237.175781 88.714844 238.425781 88.59375 C 240.355469 88.410156 242.625 84.519531 243.605469 82.921875 C 245.136719 80.421875 246.070312 78.222656 246.949219 75.578125 C 245.332031 74.222656 243.480469 73.777344 243.273438 71.738281 C 243.152344 70.601562 244.152344 69.496094 244.105469 68.234375 C 244.027344 66.050781 242.171875 65.800781 241.429688 64.0625 C 243.011719 63.089844 245.371094 63.921875 247.28125 64.0625 C 248.1875 64.828125 248.316406 66.367188 248.453125 67.902344 C 248.960938 68.574219 249.554688 67.371094 249.957031 67.902344 C 251.246094 70.730469 250.371094 74.703125 247.617188 75.410156 C 247.042969 81.847656 244.121094 85.9375 240.929688 89.765625 C 257.132812 96.503906 273.902344 102.679688 291.40625 108.121094 C 293.421875 106.628906 294.304688 104.003906 295.75 101.945312 C 294.636719 100.550781 292.5 99.429688 291.742188 97.441406 C 291.242188 96.128906 291.4375 94.273438 290.90625 93.101562 C 292.46875 92.726562 294.863281 92.917969 296.253906 93.269531 C 296.835938 91.8125 295.960938 88.902344 296.589844 87.925781 C 299.484375 88.898438 301.285156 92.625 301.601562 95.773438 C 302.078125 100.484375 298.789062 100.847656 296.921875 103.949219 C 295.785156 105.835938 295.691406 107.394531 294.582031 108.789062 C 306.765625 111.464844 320.765625 113.761719 335.53125 112.792969 C 336.671875 111.542969 337.371094 109.84375 338.371094 108.453125 C 338.214844 107.59375 337.558594 107.226562 337.539062 106.453125 C 337.488281 104.796875 339.441406 104.117188 340.042969 102.28125 C 340.648438 100.4375 339.703125 99.574219 340.042969 97.441406 C 340.941406 96.839844 341.066406 98.253906 341.882812 98.273438 C 342.796875 97.90625 343.347656 96.292969 344.222656 96.4375 C 345.777344 98.585938 345.550781 102.773438 344.890625 105.785156 C 344.816406 106.636719 345.984375 106.25 345.894531 107.121094 C 345.4375 109.570312 342.753906 111.46875 340.042969 110.121094 C 339.257812 110.507812 339.070312 111.488281 338.707031 112.292969 C 352.898438 112.054688 364.398438 106.792969 374.808594 102.78125 C 374.703125 104.9375 372.0625 104.859375 370.628906 105.449219 C 365.925781 107.386719 361.269531 110.03125 355.585938 111.457031 C 344.03125 114.359375 330.699219 116.769531 315.976562 115.464844 C 316.757812 117.683594 318.328125 119.121094 318.984375 121.472656 C 320.75 122.167969 321.125 124.386719 322.660156 125.476562 C 324.132812 126.523438 326.390625 125.878906 328.175781 126.980469 C 327.878906 130.722656 329.738281 132.320312 330.851562 134.65625 C 327.863281 135.863281 325.757812 133.433594 323.496094 132.820312 C 322.421875 133.824219 322.949219 136.179688 322.660156 137.160156 C 321.476562 136.351562 319.652344 133.199219 319.316406 130.816406 C 319.085938 129.152344 319.660156 127.511719 319.820312 125.8125 C 317.265625 122.6875 315.578125 118.699219 313.46875 115.128906 C 291.9375 112.765625 275.171875 105.640625 257.8125 99.109375 C 259.742188 105.246094 260.382812 114.121094 267.003906 116.132812 C 267.488281 117.039062 268.097656 117.820312 268.34375 118.96875 C 267.773438 119.902344 266.628906 120.261719 266 121.136719 C 265.683594 122.945312 267.054688 125.011719 265.835938 126.144531 C 264.191406 125.976562 262.460938 121.148438 260.820312 120.972656 C 259.367188 120.8125 259.199219 122.636719 258.3125 123.640625 C 256.542969 121.707031 256.171875 119.191406 257.144531 116.632812 C 257.734375 115.082031 259.9375 113.933594 259.984375 112.292969 C 260.011719 111.402344 259.105469 109.898438 258.648438 108.621094 C 257.648438 105.816406 257.207031 103.816406 256.140625 101.109375 C 255.777344 100.1875 255.171875 98.363281 254.636719 97.773438 C 253.609375 96.640625 250.160156 95.890625 248.117188 95.105469 C 233.324219 89.417969 217.5 82.320312 202.824219 77.246094 C 203.53125 79.699219 205.324219 82 206.835938 84.757812 C 208.714844 88.183594 209.921875 93.089844 213.355469 95.105469 C 214.421875 95.730469 216.1875 96.496094 217.367188 96.9375 C 218.785156 97.476562 221.167969 97.769531 221.210938 98.941406 C 221.253906 100.207031 219.59375 100.339844 218.367188 100.109375 C 218.558594 103.480469 219.726562 105.871094 222.046875 107.121094 C 221.613281 108.351562 220.089844 109.929688 218.703125 109.957031 C 217.464844 109.980469 217.164062 108.894531 216.027344 108.621094 C 215.4375 110.738281 216.914062 113.054688 217.199219 114.296875 C 216.375 114.394531 215.414062 113.722656 214.523438 113.292969 C 211.609375 111.894531 207.644531 109.183594 209.007812 104.617188 C 207.671875 104.253906 203.816406 103.183594 203.996094 101.277344 C 204.164062 99.464844 209.503906 99.496094 209.84375 96.605469 C 209.925781 95.921875 209.488281 94.277344 209.34375 93.769531 C 208.925781 92.300781 207.847656 90.628906 207.003906 89.097656 C 204.585938 84.707031 201.824219 80.207031 199.3125 75.910156 C 187.964844 71.78125 176.726562 67.535156 164.882812 63.894531 C 167.363281 68.480469 169.714844 76.191406 171.402344 82.753906 C 172.246094 86.042969 172.367188 89.5625 174.078125 91.765625 C 175.707031 93.863281 179.371094 94.980469 180.761719 97.941406 C 181.253906 98.984375 182.558594 102.550781 180.761719 103.113281 C 179.242188 103.589844 178.320312 101.898438 177.417969 101.945312 C 176.875 103.128906 177.609375 105.285156 177.253906 106.285156 C 175.191406 106.417969 173.171875 105.152344 171.738281 104.117188 C 169.59375 106.648438 164.65625 105.722656 163.046875 103.28125 C 163.296875 102.472656 164.265625 102.386719 164.882812 101.945312 C 165.320312 100.988281 165.734375 100.011719 166.390625 99.277344 C 164.378906 98.042969 162.421875 94.273438 164.382812 91.597656 C 167.082031 91.753906 169.671875 90.382812 169.898438 87.761719 C 170.058594 85.917969 168.671875 82.953125 168.0625 80.585938 C 166.292969 73.726562 163.789062 65.71875 159.703125 62.226562 C 149.84375 58.941406 139.234375 56.410156 128.28125 54.21875 C 130.894531 59.820312 131.144531 66.976562 134.800781 71.40625 C 136.355469 73.289062 139.742188 74.160156 140.316406 77.414062 C 140.695312 79.566406 140.21875 82.207031 138.8125 84.089844 C 137.316406 83.96875 136.6875 82.984375 135.300781 82.753906 C 134.199219 85.046875 132.757812 87.003906 130.789062 88.429688 C 129.960938 84.492188 126.835938 82.070312 127.78125 76.914062 C 126.289062 76.425781 125.285156 77.867188 123.769531 77.914062 C 122.75 76.003906 124.832031 74.570312 126.109375 73.410156 C 127.472656 72.171875 129.332031 71.171875 130.121094 69.738281 C 129.5 63.214844 127.097656 57.234375 123.769531 52.882812 C 115.351562 51.164062 108.714844 47.664062 99.03125 47.207031 C 99.410156 49.445312 99.992188 51.480469 100.539062 53.550781 C 104.246094 56.722656 107.929688 63.199219 104.046875 67.902344 C 102.710938 69.519531 98.027344 73.375 95.1875 70.738281 C 95.449219 68.832031 96.910156 68.113281 96.691406 66.230469 C 96.488281 64.46875 94.179688 63.625 94.019531 62.058594 C 93.726562 59.203125 96.578125 58.03125 98.195312 56.21875 C 97.464844 53.109375 96.960938 49.777344 96.023438 46.875 C 85.101562 45.042969 73.660156 43.730469 60.925781 43.703125 C 62.417969 45.996094 64.640625 47.558594 66.777344 49.210938 C 71.777344 49.539062 77.21875 52.097656 77.972656 56.886719 C 78.554688 60.554688 77.582031 64.234375 74.964844 65.566406 C 73.503906 64.476562 73.964844 62.652344 72.960938 61.394531 C 71.460938 59.515625 68.660156 60.167969 66.105469 59.222656 C 64.179688 57.617188 65.933594 54.6875 65.4375 52.546875 C 65.023438 50.761719 61.949219 49.210938 60.757812 48.207031 C 58.195312 46.046875 56.617188 43.828125 52.738281 43.535156 C 48.585938 43.226562 43.566406 44.976562 39.363281 46.039062 C 35.242188 47.082031 31.21875 48.660156 27.5 50.042969 C 21.601562 52.238281 15.898438 54.082031 10.449219 56.886719 C 7.992188 58.152344 5.972656 59.527344 3.429688 59.390625 C 2.835938 58.695312 1.484375 58.960938 0.757812 58.054688 C -0.015625 57.09375 -0.015625 55.039062 0.925781 54.21875 C 1.988281 53.289062 3.738281 54.183594 5.101562 54.050781 C 6.523438 53.910156 8.515625 52.265625 10.28125 51.378906 C 15.449219 48.789062 20.460938 46.199219 26.328125 44.371094 C 35.015625 41.664062 43.425781 40.875 51.066406 38.363281 C 51.1875 37.851562 50.777344 37.871094 50.898438 37.363281 C 45.886719 36.578125 42.460938 35.328125 40.035156 31.855469 C 38.828125 30.125 37.582031 27.875 37.191406 26.011719 C 39.179688 25.820312 40.289062 26.546875 42.039062 26.347656 C 44.640625 26.046875 46.558594 24.140625 49.226562 24.511719 C 52.003906 24.898438 55.316406 28.5 55.410156 31.519531 C 55.480469 33.785156 53.441406 35.121094 54.242188 37.363281 C 55.820312 36.210938 56.816406 34.488281 58.085938 33.023438 C 59.316406 31.601562 60.71875 30.300781 61.929688 28.851562 C 60.464844 24.617188 62.574219 20.585938 65.4375 18.671875 C 68.339844 16.726562 72.648438 17.566406 75.96875 15.667969 C 77.414062 14.839844 78.34375 13.546875 79.644531 12.664062 C 79.789062 12.632812 79.800781 12.726562 79.8125 12.828125 C 79.921875 12.828125 80.035156 12.828125 80.148438 12.828125 " fill-opacity="1" fill-rule="evenodd"/></g></svg>